<mxfile host="app.diagrams.net" modified="2023-04-16T17:32:31.645Z" agent="Mozilla/5.0 (Macintosh; Intel Mac OS X 10_15_7) AppleWebKit/605.1.15 (KHTML, like Gecko) Version/16.3 Safari/605.1.15" etag="L7_bk2k0XfJWxNBjjRHx" version="21.1.8" type="device">
  <diagram name="Side-1" id="2yTJycgBIEORYHtDOgcB">
    <mxGraphModel dx="901" dy="553" grid="1" gridSize="10" guides="1" tooltips="1" connect="1" arrows="1" fold="1" page="1" pageScale="1" pageWidth="827" pageHeight="1169" math="0" shadow="0">
      <root>
        <mxCell id="0" />
        <mxCell id="1" parent="0" />
        <mxCell id="AqLYbZ0z6UGBhNYr-cAE-14" value="User" style="swimlane;fontStyle=0;childLayout=stackLayout;horizontal=1;startSize=26;horizontalStack=0;resizeParent=1;resizeParentMax=0;resizeLast=0;collapsible=1;marginBottom=0;align=center;fontSize=14;" parent="1" vertex="1">
          <mxGeometry x="120" y="80" width="160" height="180" as="geometry" />
        </mxCell>
        <mxCell id="AqLYbZ0z6UGBhNYr-cAE-15" value="User_id # (PK)" style="text;strokeColor=none;fillColor=none;spacingLeft=4;spacingRight=4;overflow=hidden;rotatable=0;points=[[0,0.5],[1,0.5]];portConstraint=eastwest;fontSize=12;whiteSpace=wrap;html=1;" parent="AqLYbZ0z6UGBhNYr-cAE-14" vertex="1">
          <mxGeometry y="26" width="160" height="30" as="geometry" />
        </mxCell>
        <mxCell id="AqLYbZ0z6UGBhNYr-cAE-16" value="Firstname" style="text;strokeColor=none;fillColor=none;spacingLeft=4;spacingRight=4;overflow=hidden;rotatable=0;points=[[0,0.5],[1,0.5]];portConstraint=eastwest;fontSize=12;whiteSpace=wrap;html=1;" parent="AqLYbZ0z6UGBhNYr-cAE-14" vertex="1">
          <mxGeometry y="56" width="160" height="30" as="geometry" />
        </mxCell>
        <mxCell id="AqLYbZ0z6UGBhNYr-cAE-17" value="Lastname&lt;br&gt;&lt;br&gt;Email&lt;br&gt;&lt;br&gt;Password" style="text;strokeColor=none;fillColor=none;spacingLeft=4;spacingRight=4;overflow=hidden;rotatable=0;points=[[0,0.5],[1,0.5]];portConstraint=eastwest;fontSize=12;whiteSpace=wrap;html=1;" parent="AqLYbZ0z6UGBhNYr-cAE-14" vertex="1">
          <mxGeometry y="86" width="160" height="94" as="geometry" />
        </mxCell>
        <mxCell id="AqLYbZ0z6UGBhNYr-cAE-18" value="Wish" style="swimlane;fontStyle=0;childLayout=stackLayout;horizontal=1;startSize=26;horizontalStack=0;resizeParent=1;resizeParentMax=0;resizeLast=0;collapsible=1;marginBottom=0;align=center;fontSize=14;" parent="1" vertex="1">
          <mxGeometry x="360" y="80" width="160" height="210" as="geometry" />
        </mxCell>
        <mxCell id="AqLYbZ0z6UGBhNYr-cAE-19" value="Item_id # (PK)" style="text;strokeColor=none;fillColor=none;spacingLeft=4;spacingRight=4;overflow=hidden;rotatable=0;points=[[0,0.5],[1,0.5]];portConstraint=eastwest;fontSize=12;whiteSpace=wrap;html=1;" parent="AqLYbZ0z6UGBhNYr-cAE-18" vertex="1">
          <mxGeometry y="26" width="160" height="30" as="geometry" />
        </mxCell>
        <mxCell id="AqLYbZ0z6UGBhNYr-cAE-20" value="ItemName" style="text;strokeColor=none;fillColor=none;spacingLeft=4;spacingRight=4;overflow=hidden;rotatable=0;points=[[0,0.5],[1,0.5]];portConstraint=eastwest;fontSize=12;whiteSpace=wrap;html=1;" parent="AqLYbZ0z6UGBhNYr-cAE-18" vertex="1">
          <mxGeometry y="56" width="160" height="30" as="geometry" />
        </mxCell>
        <mxCell id="AqLYbZ0z6UGBhNYr-cAE-21" value="ItemDescription&lt;br&gt;&lt;br&gt;ItemPrice&lt;br&gt;&lt;br&gt;ItemQuantity&lt;br&gt;&lt;br&gt;ItemUrl" style="text;strokeColor=none;fillColor=none;spacingLeft=4;spacingRight=4;overflow=hidden;rotatable=0;points=[[0,0.5],[1,0.5]];portConstraint=eastwest;fontSize=12;whiteSpace=wrap;html=1;" parent="AqLYbZ0z6UGBhNYr-cAE-18" vertex="1">
          <mxGeometry y="86" width="160" height="124" as="geometry" />
        </mxCell>
        <mxCell id="AqLYbZ0z6UGBhNYr-cAE-22" value="WishList" style="swimlane;fontStyle=0;childLayout=stackLayout;horizontal=1;startSize=26;horizontalStack=0;resizeParent=1;resizeParentMax=0;resizeLast=0;collapsible=1;marginBottom=0;align=center;fontSize=14;" parent="1" vertex="1">
          <mxGeometry x="600" y="80" width="160" height="86" as="geometry" />
        </mxCell>
        <mxCell id="AqLYbZ0z6UGBhNYr-cAE-23" value="List_id # (PK)" style="text;strokeColor=none;fillColor=none;spacingLeft=4;spacingRight=4;overflow=hidden;rotatable=0;points=[[0,0.5],[1,0.5]];portConstraint=eastwest;fontSize=12;whiteSpace=wrap;html=1;" parent="AqLYbZ0z6UGBhNYr-cAE-22" vertex="1">
          <mxGeometry y="26" width="160" height="30" as="geometry" />
        </mxCell>
        <mxCell id="AqLYbZ0z6UGBhNYr-cAE-24" value="List_name" style="text;strokeColor=none;fillColor=none;spacingLeft=4;spacingRight=4;overflow=hidden;rotatable=0;points=[[0,0.5],[1,0.5]];portConstraint=eastwest;fontSize=12;whiteSpace=wrap;html=1;" parent="AqLYbZ0z6UGBhNYr-cAE-22" vertex="1">
          <mxGeometry y="56" width="160" height="30" as="geometry" />
        </mxCell>
        <mxCell id="AqLYbZ0z6UGBhNYr-cAE-34" value="" style="edgeStyle=entityRelationEdgeStyle;fontSize=12;html=1;endArrow=ERoneToMany;rounded=0;exitX=1.013;exitY=0.181;exitDx=0;exitDy=0;exitPerimeter=0;entryX=-0.006;entryY=0.137;entryDx=0;entryDy=0;entryPerimeter=0;" parent="1" source="AqLYbZ0z6UGBhNYr-cAE-17" target="AqLYbZ0z6UGBhNYr-cAE-21" edge="1">
          <mxGeometry width="100" height="100" relative="1" as="geometry">
            <mxPoint x="450" y="330" as="sourcePoint" />
            <mxPoint x="550" y="230" as="targetPoint" />
          </mxGeometry>
        </mxCell>
        <mxCell id="AqLYbZ0z6UGBhNYr-cAE-35" value="" style="edgeStyle=entityRelationEdgeStyle;fontSize=12;html=1;endArrow=ERoneToMany;rounded=0;exitX=1;exitY=0.5;exitDx=0;exitDy=0;entryX=0;entryY=0.5;entryDx=0;entryDy=0;" parent="1" source="AqLYbZ0z6UGBhNYr-cAE-20" target="AqLYbZ0z6UGBhNYr-cAE-24" edge="1">
          <mxGeometry width="100" height="100" relative="1" as="geometry">
            <mxPoint x="450" y="330" as="sourcePoint" />
            <mxPoint x="550" y="230" as="targetPoint" />
          </mxGeometry>
        </mxCell>
      </root>
    </mxGraphModel>
  </diagram>
</mxfile>
